<svg xmlns="http://www.w3.org/2000/svg" width="1242.371" height="1033.307" viewBox="0 0 1242.371 1033.307">
  <g id="Group_1" data-name="Group 1" transform="translate(0)" opacity="0.7">
    <path id="Path_1" data-name="Path 1" d="M517.774,779.7l2.381,33.332v19.047s4.762,50-40.474,45.236-7.143-76.187-7.143-76.187l4.762-14.285Z" transform="translate(281.578 155.677)" fill="#2f2e41"/>
    <path id="Path_2" data-name="Path 2" d="M594.313,721.576s14.285,4.762,9.523,35.713c0,0-11.9,9.523-23.808,14.285a40.12,40.12,0,0,0-12.075,8.179,93.318,93.318,0,0,1-44.317,23.615c-11.288,2.4-21.656,2.133-24.557-5.6-7.143-19.047,28.57-35.713,28.57-35.713L556.22,731.1Z" transform="translate(145.518 139.992)" fill="#2f2e41"/>
    <path id="Path_3" data-name="Path 3" d="M640.694,470.346s-42.855,57.14-21.428,59.521,38.093-50,38.093-50Z" transform="translate(-53.237 72.19)" fill="#fbbebe"/>
    <path id="Path_4" data-name="Path 4" d="M597.614,442.223l4.762,166.659s9.523,30.951,7.143,45.236c0,0,4.035,16.142,4.676,22.42.055.542.085,1.01.085,1.388,0,4.762,19.047,85.71,7.142,142.85,0,0,11.9,45.236-2.381,57.14L573.805,880.3l2.381-88.091L552.378,658.879l-11.9-35.712s19.047,99.995,14.285,133.327c0,0,9.523,28.57,7.143,45.236,0,0-2.381,21.428-42.855,7.143L511.9,770.779l-57.912-298.62,55.531-25.175Z" transform="translate(180.311 64.6)" fill="#2f2e41"/>
    <circle id="Ellipse_1" data-name="Ellipse 1" cx="42.855" cy="42.855" r="42.855" transform="translate(627.932 161.602)" fill="#fbbebe"/>
    <path id="Path_5" data-name="Path 5" d="M455.2,165.621l16.666,35.713L429.015,229.9,407.587,191.81Z" transform="translate(252.486 44.788)" fill="#fbbebe"/>
    <path id="Path_6" data-name="Path 6" d="M501.878,264.37l.686-10.023S534,241.367,547.7,227.87l11.319,7.93,66.664,30.951L601.873,516.738s-42.855-4.762-69.044,23.808-71.425-11.9-71.425-11.9V459.6l11.9-78.567-11.9-85.71Z" transform="translate(171.29 6.751)" fill="#d0cde1"/>
    <path id="Path_7" data-name="Path 7" d="M629.815,279.111l-16.666,2.381s-7,13.993-4.832,60.446q.034.722.07,1.455c2.381,47.617-7.143,64.283-7.143,64.283L560.771,526.718,586.96,541,625.054,467.2l26.188-152.373Z" transform="translate(19.545 20.58)" fill="#d0cde1"/>
    <path id="Path_8" data-name="Path 8" d="M531.588,192.043a24.424,24.424,0,0,1,1.125-8.749c2.208-6.033,8.023-9.867,13.543-13.153,7.746-4.611,15.774-9.05,24.576-11s18.6-1.117,25.925,4.132c4.716,3.377,8.073,8.288,11.2,13.174a73.56,73.56,0,0,1,8.58,16.723,2.314,2.314,0,0,1,.132,1.449,2.585,2.585,0,0,1-1.018,1.094c-5.884,4.394-10.3,6.33-6.265,12.463-9.74-10.047-16.668-12.864-26.409-22.911,1.142,1.056-.568,2.951-2.121,2.882s-3.005-1.025-4.554-.89c-2.257.2-3.611,2.494-5.289,4.015s-5.191,1.713-5.475-.534l-5.926,8.007a6.8,6.8,0,0,1-2.99-2.187l-6.386,9.655-2.689-2.881a50.526,50.526,0,0,0-3.214,5.675c-5-4.141-6.518,6.115-6.522,8.543C532.386,216.746,531.647,196.45,531.588,192.043Z" transform="translate(91.162 -12.056)" fill="#2f2e41"/>
    <path id="Path_9" data-name="Path 9" d="M522.578,459.1s-42.855,57.14-21.428,59.521,38.093-50,38.093-50Z" transform="translate(214.872 69.154)" fill="#fbbebe"/>
    <path id="Path_10" data-name="Path 10" d="M489.052,260.868l9.523-2.381s26.189,35.713,30.951,73.806S539.049,418,539.049,418L458.1,532.283l-28.57-21.428,61.9-107.138-21.427-30.951Z" transform="translate(298.396 15.014)" fill="#d0cde1"/>
    <path id="Path_11" data-name="Path 11" d="M414.506,345.58l-50.2,87.761,45.236-95.234Z" transform="translate(364.814 91.339)" opacity="0.1"/>
    <path id="Path_12" data-name="Path 12" d="M231,942.122h2.54V26.54H1179.6V24H231Z" transform="translate(-231 6.568)" fill="#3f3d56"/>
    <rect id="Rectangle_99" data-name="Rectangle 99" width="271.137" height="53.609" transform="translate(311.433 6.186)" fill="#3f3d56"/>
    <rect id="Rectangle_100" data-name="Rectangle 100" width="104.125" height="53.609" transform="translate(800.098 6.186)" fill="#3f3d56"/>
    <circle id="Ellipse_2" data-name="Ellipse 2" cx="31.959" cy="31.959" r="31.959" transform="translate(970.203 244.333)" fill="#f2f2f2"/>
    <ellipse id="Ellipse_3" data-name="Ellipse 3" cx="59.279" cy="59.795" rx="59.279" ry="59.795" transform="translate(942.368 428.871)" fill="#f2f2f2"/>
    <ellipse id="Ellipse_4" data-name="Ellipse 4" cx="79.898" cy="79.382" rx="79.898" ry="79.382" transform="translate(921.749 638.152)" fill="#f2f2f2"/>
    <ellipse id="Ellipse_5" data-name="Ellipse 5" cx="12.887" cy="12.371" rx="12.887" ry="12.371" transform="translate(956.801 741.246)" fill="#d0cde1"/>
    <circle id="Ellipse_6" data-name="Ellipse 6" cx="7.217" cy="7.217" r="7.217" transform="translate(1013.503 718.565)" fill="#d0cde1"/>
    <ellipse id="Ellipse_7" data-name="Ellipse 7" cx="7.732" cy="7.217" rx="7.732" ry="7.217" transform="translate(993.915 677.328)" fill="#d0cde1"/>
    <path id="Path_13" data-name="Path 13" d="M427.722,512.256a15.239,15.239,0,1,0-15.239-15.239A15.239,15.239,0,0,0,427.722,512.256Zm0-27.937a12.7,12.7,0,1,1-12.7,12.7,12.7,12.7,0,0,1,12.7-12.7Z" transform="translate(416.134 75.275)" fill="#2f2e41"/>
    <path id="Path_14" data-name="Path 14" d="M361.57,200.4h25.069V175.328H361.57Zm23.14-1.928H363.5V177.256h21.212Z" transform="translate(537.109 -7.429)" fill="#3f3d56"/>
    <path id="Path_15" data-name="Path 15" d="M187.822,347.679l17.1-18.332-18.332-17.1-17.1,18.332ZM202.2,329.441l-14.468,15.512-15.512-14.468,14.469-15.511Z" transform="translate(962.745 29.523)" fill="#2f2e41"/>
    <circle id="Ellipse_8" data-name="Ellipse 8" cx="31.959" cy="31.959" r="31.959" transform="translate(659.89)" fill="#6c63ff"/>
    <rect id="Rectangle_101" data-name="Rectangle 101" width="550.522" height="3.093" transform="translate(691.849 97.939)" fill="#3f3d56"/>
    <circle id="Ellipse_9" data-name="Ellipse 9" cx="31.444" cy="31.444" r="31.444" transform="translate(1112.473 67.011)" fill="#6c63ff"/>
    <rect id="Rectangle_102" data-name="Rectangle 102" width="311.12" height="217.149" transform="translate(269.613 453.205)" fill="#6c63ff"/>
    <path id="Path_16" data-name="Path 16" d="M653.686,582.689h313.66V363H653.686Zm311.12-2.54H656.226V365.54h308.58Z" transform="translate(-414.55 43.22)" fill="#3f3d56"/>
  </g>
</svg>
